<?xml version="1.0" standalone="no"?>
<!DOCTYPE svg PUBLIC "-//W3C//DTD SVG 20010904//EN"
 "http://www.w3.org/TR/2001/REC-SVG-20010904/DTD/svg10.dtd">
<svg version="1.0" xmlns="http://www.w3.org/2000/svg"
 width="600.000000pt" height="600.000000pt" viewBox="0 0 600.000000 600.000000"
 preserveAspectRatio="xMidYMid meet">
<metadata>
Created by potrace 1.14, written by Peter Selinger 2001-2017
</metadata>
<g transform="translate(0.000000,600.000000) scale(0.100000,-0.100000)"
fill="#000000" stroke="none">
<path d="M2798 5995 c-1 -1 -37 -5 -78 -9 -41 -3 -86 -8 -100 -11 -14 -2 -43
-6 -65 -9 -136 -18 -406 -81 -485 -113 -8 -4 -17 -7 -20 -8 -3 0 -30 -9 -60
-19 -58 -20 -75 -27 -230 -95 -107 -48 -333 -169 -338 -182 -2 -5 -8 -9 -13
-9 -8 0 -107 -63 -144 -92 -5 -4 -41 -31 -80 -59 -219 -163 -484 -437 -636
-659 -24 -35 -50 -71 -57 -78 -6 -7 -12 -20 -12 -28 0 -8 -4 -14 -8 -14 -5 0
-15 -12 -22 -27 -8 -16 -20 -35 -26 -43 -20 -24 -175 -330 -168 -330 3 0 2 -6
-4 -12 -6 -7 -22 -44 -37 -83 -15 -38 -31 -79 -36 -90 -16 -35 -75 -228 -84
-275 -2 -8 -10 -42 -18 -75 -14 -54 -20 -87 -33 -165 -3 -14 -6 -36 -9 -50 -5
-28 -12 -80 -24 -190 -12 -101 -6 -526 8 -625 24 -166 37 -235 70 -370 28
-114 71 -256 90 -300 5 -11 19 -47 32 -80 12 -33 46 -111 76 -172 29 -62 53
-117 53 -123 0 -5 4 -10 8 -10 4 0 13 -12 19 -28 7 -15 23 -45 38 -67 14 -22
31 -51 38 -65 26 -50 52 -90 60 -90 4 0 7 -5 7 -10 0 -6 5 -16 10 -23 6 -7 40
-52 76 -102 100 -135 145 -188 283 -326 209 -208 428 -375 659 -501 343 -186
665 -294 1052 -352 186 -28 642 -29 810 -2 14 3 59 10 100 16 173 27 485 116
644 183 110 46 346 169 441 228 97 61 261 177 298 210 11 10 41 35 67 56 57
45 263 251 340 341 117 135 324 449 380 574 10 24 23 47 27 52 4 4 8 11 8 14
1 4 10 25 22 47 11 22 22 43 22 47 2 9 28 73 46 113 13 29 77 220 81 240 1 6
9 35 18 66 9 31 18 65 20 75 2 11 12 51 21 89 9 39 18 88 21 110 3 22 8 51 10
65 36 187 41 648 9 845 -2 17 -7 44 -9 60 -22 139 -71 356 -97 422 -6 15 -12
35 -14 43 -10 49 -76 217 -126 325 -18 39 -33 72 -33 75 -1 3 -4 10 -8 15 -3
6 -24 45 -47 88 -23 43 -52 95 -66 115 -14 20 -25 41 -25 47 -1 5 -14 26 -30
45 -17 19 -30 38 -30 43 0 7 -24 42 -77 112 -24 31 -89 112 -100 123 -7 7 -13
17 -13 22 0 9 -295 308 -343 348 -15 12 -32 22 -37 22 -6 0 -10 4 -10 9 0 17
-271 210 -400 285 -25 14 -92 49 -150 78 -58 29 -106 56 -108 60 -2 4 -10 4
-18 1 -8 -3 -14 0 -14 6 0 6 -9 11 -19 11 -11 0 -22 4 -26 10 -3 5 -20 14 -38
19 -18 5 -77 26 -132 46 -55 20 -111 39 -124 41 -14 3 -28 7 -33 10 -29 18
-291 74 -438 94 -41 6 -88 13 -105 16 -33 6 -501 14 -507 9z"/>
</g>
</svg>
